# xmcd
#
# Track frame offsets:
#	150
#	17573
#	44232
#	59272
#	69909
#	87180
#	106252
#	133293
#	144114
#	155445
#	169354
#	182081
#	190243
#	200929
#
# Disc length: 2842 seconds
#
# Revision: 1
# Processed by: cddbd v1.5.1PL0 Copyright (c) Steve Scherf et al.
# Submitted via: audiograbber 1.83.01
#
DISCID=cb0b180e
DTITLE=TEO AZEVEDO - BRASIL COM S
DYEAR=1900
DGENRE=Country
TTITLE0=ESQUENTA O FORRÓ
TTITLE1=TERNOS PINGOS DE SAUDADE
TTITLE2=BODAIS
TTITLE3=FERRADA DO MARIBONDO
TTITLE4=ANDARILHO DO SÃO FRANCISCO
TTITLE5=SERTÃO BRASILEIRO
TTITLE6=TOINHA
TTITLE7=SÃO PAULO DE TODOS NÓS
TTITLE8=FORRÓ E PRAZER
TTITLE9=O REI DO PEQUI
TTITLE10=BOI DO PANTANAL
TTITLE11=TRAVA LÍNGUA DO P
TTITLE12=VALSANANDA
TTITLE13=AMANHECER SERTANEJO
EXTD=
EXTT0=
EXTT1=
EXTT2=
EXTT3=
EXTT4=
EXTT5=
EXTT6=
EXTT7=
EXTT8=
EXTT9=
EXTT10=
EXTT11=
EXTT12=
EXTT13=
PLAYORDER=
